<svg xmlns="http://www.w3.org/2000/svg" width="404" height="404" viewBox="0 0 404 404">
  <g>
    <path d="M55.71,10.08c6.67,3.71,11.5,9.71,17.66,14.11a236.72,236.72,0,0,0,57.71,29.88c.82.29,1.62.61,2.43.92-2,1.24-3.95,2.54-6,3.71A98.92,98.92,0,0,0,99.74,82.17C86.71,98.11,80,116.7,76.59,136.8c-1.08,6.42-1.28,13-3.67,19.21-16.26-10.58-29.77-23.7-38.3-41.42C25.85,96.34,24,77.24,27.54,57.46A132.17,132.17,0,0,1,40.92,19.23c2.09-4,4.64-7.28,8.8-9.15Z" transform="translate(0 0)" style="fill: #82a2b1"/>
    <path d="M269.79,55.06c14.33-5.32,28.4-11.19,41.61-19,11.07-6.5,21.68-13.63,30.94-22.58,1.55-1.5,3.57-2.14,5.19-3.45h6c4.44,1.94,6.93,5.59,9.11,9.74,8.57,16.32,14,33.58,14.65,52,1.15,31.71-11.87,56.91-36.34,76.56A81.32,81.32,0,0,1,330.29,156c-1.67-4.92-2.12-10.09-2.86-15.16-2.42-16.59-6.77-32.5-15.5-47A96.34,96.34,0,0,0,293.6,71.5,128.93,128.93,0,0,0,269.79,55.06Z" transform="translate(0 0)" style="fill: #5b7a84"/>
    <path d="M269.79,55.06A128.93,128.93,0,0,1,293.6,71.5a96.34,96.34,0,0,1,18.33,22.34c8.73,14.46,13.08,30.37,15.5,47,.74,5.07,1.19,10.24,2.86,15.16,0,7.62,1.72,15,2.59,22.56,1.41,12.23,2.66,24.46,3.43,36.74,1.3,20.84,1.44,41.78,5.23,62.41,1.16,6.35,2.61,12.68,2.87,19.14.92,22.24-8.41,39.42-26.24,52.31A92.36,92.36,0,0,1,296.24,361a165.7,165.7,0,0,0-32.09,16.54c-14.31,9.23-30.31,13.5-47.18,14.95a130.08,130.08,0,0,1-15.28.56q0-53.79,0-107.56c15.05,0,28.44-5,40.68-13.52,11.77-8.18,15.51-18.69,11.15-32.36Q233.19,176,212.75,112.42c-1.74-5.43-5.3-8.52-11.08-8.9l0-61.89c22.83-.79,44.8,3,65.64,12.57C268.13,54.56,269,54.78,269.79,55.06Zm-33.2,246.07c-15,.14-28.35,13.73-28.18,28.68a11.17,11.17,0,0,0,3.73,8.63c3.31,2.9,7.14,4,11.41,2.31a10.93,10.93,0,0,0,7.26-9.54c.63-5.24,2.39-7.19,6.92-7.65,7.05-.71,11.42-5.46,11-12C248.41,305.29,243.48,301.07,236.59,301.13Zm52-90.88a10.78,10.78,0,0,0-11.17-11,11.28,11.28,0,0,0-11.24,11.1c.07,6,5.32,11.3,11.19,11.32A11.15,11.15,0,0,0,288.54,210.25Z" transform="translate(0 0)" style="fill: #82a2b1"/>
    <path d="M201.71,41.63l0,61.89-.1.23c-6.37.38-9.62,4.16-11.41,10-4.28,13.87-8.72,27.7-13.15,41.53q-13.47,42-27,84.07c-4,12.61-1,24,9.68,31.67,12.59,9,26.28,14.3,41.86,14.32l.1.23q0,53.78,0,107.56c-25.41.42-49.09-5.3-70-20.2-7.63-5.43-16.37-8.33-24.81-12-12.32-5.3-23.94-11.74-33-21.89a57.47,57.47,0,0,1-14.53-32c-1.38-10.79,1.22-21,2.85-31.34s2.73-20.64,3.36-31.05c.91-15,1.38-30,2.77-45q1.82-19.45,4.63-38.77a35.64,35.64,0,0,0,0-4.85c2.39-6.18,2.59-12.79,3.67-19.21C80,116.7,86.71,98.11,99.74,82.17A98.92,98.92,0,0,1,127.53,58.7c2-1.17,4-2.47,6-3.71,9.8-3.81,19.55-7.72,29.9-9.89A155.51,155.51,0,0,1,201.71,41.63Zm-35,259.5c-6.82-.12-11.88,4.17-12.26,10.41s4,11.25,10.73,12c4.88.54,6.65,2.34,7.21,7.36.72,6.38,5.8,10.94,11.77,10.57a11.52,11.52,0,0,0,10.62-11.83C194.74,314.62,181.72,301.4,166.73,301.13Zm-52-90.79a11.18,11.18,0,0,0,11,11.33,11.6,11.6,0,0,0,11.33-11.2,11.19,11.19,0,0,0-11.19-11.18A10.87,10.87,0,0,0,114.69,210.34Z" transform="translate(0 0)" style="fill: #aed3d8"/>
    <path d="M201.67,103.52c5.78.38,9.34,3.47,11.08,8.9Q233.12,176,253.5,239.64c4.36,13.67.62,24.18-11.15,32.36-12.24,8.51-25.63,13.5-40.68,13.52l-.1-.22V103.75Z" transform="translate(0 0)" style="fill: #d7c5c5"/>
    <path d="M236.59,301.13c6.89-.06,11.82,4.16,12.18,10.41.38,6.56-4,11.31-11,12-4.53.46-6.29,2.41-6.92,7.65a10.93,10.93,0,0,1-7.26,9.54c-4.27,1.66-8.1.59-11.41-2.31a11.17,11.17,0,0,1-3.73-8.63C208.24,314.86,221.59,301.27,236.59,301.13Z" transform="translate(0 0)" style="fill: #434e53"/>
    <path d="M288.54,210.25a11.15,11.15,0,0,1-11.22,11.46c-5.87,0-11.12-5.33-11.19-11.32a11.28,11.28,0,0,1,11.24-11.1A10.78,10.78,0,0,1,288.54,210.25Z" transform="translate(0 0)" style="fill: #434e53"/>
    <path d="M201.57,103.75V285.3C186,285.27,172.3,280,159.71,271,149,263.28,146,251.91,150,239.3q13.44-42.06,27-84.07c4.43-13.83,8.87-27.66,13.15-41.53C192,107.91,195.2,104.13,201.57,103.75Z" transform="translate(0 0)" style="fill: #f2e4e4"/>
    <path d="M166.73,301.13c15,.27,28,13.49,28.07,28.51a11.52,11.52,0,0,1-10.62,11.83c-6,.37-11.05-4.19-11.77-10.57-.56-5-2.33-6.82-7.21-7.36-6.73-.75-11.12-5.66-10.73-12S159.91,301,166.73,301.13Z" transform="translate(0 0)" style="fill: #536065"/>
    <path d="M114.69,210.34a10.87,10.87,0,0,1,11.17-11.05,11.19,11.19,0,0,1,11.19,11.18,11.6,11.6,0,0,1-11.33,11.2A11.18,11.18,0,0,1,114.69,210.34Z" transform="translate(0 0)" style="fill: #546065"/>
  </g>
</svg>
