<?xml version="1.0" encoding="UTF-8"?>
<svg xmlns="http://www.w3.org/2000/svg" viewBox="0 0 80.37 22.05">
  <g>
    <path d="m64.45,2.28c.01,4.87.02,9.74.04,14.61,0,.38-.09.56-.49.5-.11-.02-.22,0-.33,0q-1.45,0-1.51-1.66c-.69.72-1.41,1.22-2.26,1.49-2.45.78-5.64.45-7.35-2.11-1.06-1.59-.85-4.84.58-6.26,2.01-1.98,4.29-2.4,6.91-1.69.74.2,1.24.81,1.98,1.27,0-.92,0-1.79,0-2.66,0-1.06.02-2.11,0-3.17,0-.39.11-.52.5-.5.6.04,1.2.03,1.8.03.04.05.09.09.13.14Zm-6.21,6.33c-2.54-.27-3.85,1.82-3.93,3.45-.12,2.54,1.76,4.08,3.95,3.99,2.17-.08,3.7-1.1,3.79-3.74.09-2.62-1.8-3.94-3.82-3.7Z"/>
    <path d="m73.66,17.53c-1.98.11-3.56-.47-4.98-1.73-2.17-1.92-1.84-6.07.88-7.78,2.17-1.37,4.51-1.57,6.84-.83,2.19.7,3.82,2.18,3.96,4.65.11,1.87-.5,3.51-2.68,4.76-1.3.74-2.66,1.05-4.02.94Zm.07-1.46c1.92.13,4.14-1.26,4.11-3.79-.02-2.2-1.28-3.76-4.06-3.84-2.32-.07-4.06,1.62-4.07,3.83,0,2.03,1.74,3.94,4.02,3.81Z"/>
    <path d="m37.47,17.21c-.01-2.76-.04-5.51-.02-8.27,0-.52-.22-.98-.19-1.5.02-.33.06-.52.44-.46.03,0,.05,0,.08,0q1.71-.07,1.82,1.62c.55-.15.83-.64,1.27-.91,1.26-.79,2.56-1,4.05-.77.88.14,1.62.41,2.31.92,1.08.8,1.62,1.92,1.66,3.21.05,2.05,0,4.11,0,6.16l-.13.14c-.73,0-1.68.27-2.14-.08-.48-.37-.11-1.36-.15-2.08-.09-1.36.11-2.73-.15-4.1-.3-1.6-.74-2.12-2.22-2.43-1.46-.31-3.34.18-4.03,1.72-.13.29-.16.55-.16.84,0,1.86-.02,3.73.01,5.59,0,.46-.13.61-.59.57-.57-.04-1.14-.03-1.71-.04-.04-.05-.09-.09-.13-.14Z"/>
    <path d="m21.79,6.98c.69,0,1.28,0,1.87,0,.47,0,.44.38.49.67.03.21,0,.43.01.65.01.15-.09.36.11.43.23.07.28-.16.39-.31.85-1.12,1.99-1.64,3.41-1.62.46,0,.56.17.52.56-.01.11-.02.22,0,.32.16.85-.12,1.1-1.05,1.12-1.94.04-3.07,1.55-3.06,3.2.01,1.6-.01,3.19.01,4.79,0,.44-.1.59-.57.59-1.85.02-1.85.04-1.85-1.77,0-2.54-.03-5.09-.04-7.63,0-.32-.01-.63-.24-1.01Z"/>
    <path d="m31.08,17.21V7.15s.09-.09.13-.14c.73,0,1.66-.26,2.14.09.46.33.14,1.31.14,2,.02,2.54,0,5.09.02,7.63,0,.53-.13.71-.67.66-.54-.05-1.09-.03-1.64-.04-.04-.05-.09-.09-.13-.14Z"/>
    <path d="m32.3,5.18c-.64.12-1.11-.05-1.44-.63-.24-.42-.14-.75.08-1.1.43-.69,2.23-.73,2.69.05.19.32.35.7.1,1.05-.34.48-.79.82-1.43.63Z"/>
    <path d="m64.45,2.28s-.09-.09-.13-.14c.12-.02.17.02.13.14Z"/>
    <path d="m31.21,7.01s-.09.09-.13.14c-.04-.12.02-.16.13-.14Z"/>
    <path d="m31.08,17.21s.09.09.13.14c-.12.02-.17-.02-.13-.14Z"/>
    <path d="m37.47,17.21s.09.09.13.14c-.12.02-.17-.02-.13-.14Z"/>
    <path d="m48.74,17.35s.09-.09.13-.14c.04.12-.02.16-.13.14Z"/>
  </g>
  <g>
    <path d="m1.72,0c.4.22.69.58,1.05.84.9.64,1.88,1.15,2.91,1.55.17.07.35.13.52.2-.42.27-.86.51-1.24.84-1.17,1.02-1.78,2.34-2.03,3.85-.06.38-.08.76-.21,1.13-.96-.62-1.75-1.41-2.24-2.46C.18,5.31.03,4.66,0,3.97-.05,2.68.35,1.5.96.37c.1-.18.25-.28.42-.37h.34Z" style="fill: #81a2b1;"/>
    <path d="m14.04,2.59c.66-.26,1.33-.53,1.96-.86.77-.4,1.49-.88,2.14-1.46.13-.11.25-.22.42-.27h.3c.46.2.58.66.76,1.06.28.62.44,1.27.54,1.95.17,1.11-.01,2.16-.51,3.15-.48.95-1.23,1.64-2.11,2.22-.02.01-.04,0-.06.01-.03-.48-.13-.94-.22-1.41-.23-1.28-.77-2.41-1.7-3.32-.45-.44-.97-.78-1.52-1.07Z" style="fill: #5b7a83;"/>
    <path d="m2.71,8.4c.14-.36.15-.75.21-1.13.25-1.51.86-2.83,2.03-3.85.38-.33.82-.57,1.24-.84.57-.22,1.14-.45,1.74-.57.42-.08.84-.14,1.27-.17.31-.01.61-.05.92-.03,0,1.19,0,2.38,0,3.57-.37.04-.56.26-.67.6-.37,1.19-.75,2.37-1.13,3.56-.4,1.24-.8,2.48-1.19,3.72-.2.63-.04,1.27.43,1.64.75.6,1.59.94,2.56.95,0,2.06,0,4.13,0,6.19-1.45.02-2.81-.3-4.01-1.15-.45-.32-.95-.49-1.45-.7-.7-.3-1.37-.67-1.89-1.24-.48-.53-.76-1.14-.85-1.86-.08-.61.06-1.19.16-1.78.1-.61.16-1.23.2-1.85.06-.85.08-1.7.15-2.54.07-.84.24-1.67.28-2.51Zm6.97,9.97c.03-.27-.04-.53-.18-.77-.28-.48-.7-.74-1.25-.83-.4-.07-.79.14-.85.49-.07.42.18.73.63.79.2.03.37.09.37.35,0,.1.04.21.08.3.13.27.46.43.7.37.3-.08.57-.31.49-.7Zm-3.31-6.83c0-.39-.25-.64-.63-.65-.33,0-.65.33-.66.64,0,.31.35.67.65.66.36-.02.7-.29.64-.65Z" style="fill: #add3d8;"/>
    <path d="m10.12,5.38c0-1.19,0-2.38,0-3.57,1.31-.03,2.58.16,3.78.72.04.02.09.03.14.05.55.29,1.07.64,1.52,1.07.93.92,1.47,2.04,1.7,3.32.09.47.19.94.22,1.41.05.34.1.69.14,1.03.06.49.12.97.16,1.46.05.62.1,1.23.13,1.85.04,1.02.12,2.03.33,3.03.19.92.13,1.81-.36,2.63-.47.79-1.18,1.3-2.01,1.66-.78.34-1.54.68-2.25,1.15-.66.43-1.41.64-2.19.75-.43.06-.86.1-1.3.08,0-2.06,0-4.13,0-6.19h0c.77.01,1.46-.22,2.11-.62.27-.17.53-.35.72-.61.33-.47.31-.97.14-1.49-.32-.98-.63-1.97-.95-2.96-.47-1.45-.93-2.9-1.4-4.34-.09-.29-.31-.44-.61-.44h0Zm.39,12.99c0,.48.41.79.86.65.29-.09.39-.32.43-.6.03-.25.16-.37.38-.38.41-.03.65-.29.64-.66-.01-.38-.21-.64-.7-.63-.94.02-1.59.81-1.62,1.63Zm4.61-6.84c0-.39-.27-.66-.65-.66-.34,0-.64.31-.64.65,0,.31.34.65.65.65.36,0,.64-.29.64-.64Z" style="fill: #81a1b1;"/>
    <path d="m10.12,15.85c-.97-.01-1.82-.35-2.56-.95-.46-.37-.63-1.01-.43-1.64.39-1.24.79-2.48,1.19-3.72.38-1.18.76-2.37,1.13-3.56.11-.34.3-.56.67-.6,0,0,0,0,0,0,0,3.49,0,6.97,0,10.46h0Z" style="fill: #f2e4e3;"/>
    <path d="m9.69,18.37c.08.38-.19.62-.49.7-.25.07-.57-.1-.7-.37-.05-.09-.08-.2-.08-.3,0-.26-.17-.33-.37-.35-.45-.06-.7-.37-.63-.79.06-.35.45-.55.85-.49.55.09.97.36,1.25.83.14.24.21.5.18.77Z" style="fill: #535f64;"/>
    <path d="m6.37,11.54c.06.36-.29.63-.64.65-.29.02-.65-.35-.65-.66,0-.31.32-.65.66-.64.38,0,.64.26.63.65Z" style="fill: #535f64;"/>
    <path d="m10.12,15.84c0-3.49,0-6.97,0-10.46.31,0,.52.15.61.44.47,1.45.94,2.89,1.4,4.34.32.99.62,1.97.95,2.96.17.52.19,1.03-.14,1.49-.18.26-.44.44-.72.61-.65.4-1.34.63-2.11.62Z" style="fill: #d7c5c5;"/>
    <path d="m10.51,18.38c.02-.81.68-1.6,1.62-1.63.49-.01.69.25.7.63.01.37-.23.63-.64.66-.23.01-.35.14-.38.38-.04.28-.14.51-.43.6-.45.14-.87-.17-.86-.65Z" style="fill: #424d52;"/>
    <path d="m15.12,11.55c0,.35-.28.63-.64.64-.31,0-.65-.33-.65-.65,0-.34.3-.64.64-.65.38,0,.65.26.65.66Z" style="fill: #424d52;"/>
  </g>
</svg>